<svg width="37" height="37" fill="none" xmlns="http://www.w3.org/2000/svg"><path d="M15.219 27.898h6m-3.9 3.75h1.8c3.375 0 5.062 0 6.245-.86.382-.277.718-.614.995-.995.86-1.183.86-2.87.86-6.245v-10.8c0-3.375 0-5.063-.86-6.246a4.5 4.5 0 0 0-.995-.995c-1.183-.86-2.87-.86-6.245-.86h-1.8c-3.375 0-5.062 0-6.245.86a4.5 4.5 0 0 0-.996.995c-.86 1.183-.86 2.87-.86 6.246v10.8c0 3.374 0 5.062.86 6.245.278.381.614.718.996.995 1.183.86 2.87.86 6.245.86Z" stroke="#232323" stroke-width="2.25" stroke-linecap="round" stroke-linejoin="round"/><path d="M19.344 8.022a1.125 1.125 0 1 1-2.25 0 1.125 1.125 0 0 1 2.25 0Z" fill="#232323"/></svg>